<svg width="1939" height="2342" viewBox="0 0 1939 2342" fill="none" xmlns="http://www.w3.org/2000/svg">
<path fill-rule="evenodd" clip-rule="evenodd" d="M844 1254C1098.05 1254 1304 1055.21 1304 810C1304 564.786 1098.05 366 844 366C589.949 366 384 564.786 384 810C384 1055.21 589.949 1254 844 1254ZM844 1246C1093.9 1246 1296 1050.53 1296 810C1296 569.468 1093.9 374 844 374C594.098 374 392 569.468 392 810C392 1050.53 594.098 1246 844 1246Z" stroke="#90EE90" stroke-width="8"/>
<path d="M280 1638.1L1408 1634L1407.97 1626L279.971 1630.1L280 1638.1Z" stroke="#90EE90" stroke-width="8"/>
<path d="M1408 1830L280 1834.1L279.971 1826.1L1407.97 1822L1408 1830Z" stroke="#90EE90" stroke-width="8"/>
<path d="M280 2030.1L1408 2026L1407.97 2018L279.971 2022.1L280 2030.1Z" stroke="#90EE90" stroke-width="8"/>
<path fill-rule="evenodd" clip-rule="evenodd" d="M320 53.0001C320 25.9381 341.938 4 369 4H1886C1913.06 4 1935 25.938 1935 53V2105C1935 2132.06 1913.06 2154 1886 2154H1619V2289C1619 2316.06 1597.06 2338 1570 2338H53C25.9381 2338 4 2316.06 4 2289V237C4 209.938 25.938 188 53 188H320V53.0001ZM369 20C350.775 20 336 34.7746 336 53.0001V188H1570C1597.06 188 1619 209.938 1619 237V294H1752V310H1619V619H1752V635H1619V960H1752V976H1619V2138H1886C1904.23 2138 1919 2123.23 1919 2105V53C1919 34.7746 1904.23 20 1886 20H369ZM53 196C30.3563 196 12 214.356 12 237V2289C12 2311.64 30.3563 2330 53 2330H1570C1592.64 2330 1611 2311.64 1611 2289V237C1611 214.356 1592.64 196 1570 196H53Z" stroke="#90EE90" stroke-width="8"/>
</svg>
