<svg width="881" height="995" viewBox="0 0 881 995" fill="none" xmlns="http://www.w3.org/2000/svg">
<path d="M0.284393 705.741L31.2077 716.249L41.7156 685.326L10.7923 674.818L0.284393 705.741ZM297 559.534L298.768 563.122L301 562.022V559.534H297ZM297 407.534H301V406.086L300.073 404.973L297 407.534ZM237 335.534H233V336.982L233.927 338.095L237 335.534ZM237 143.534L233.86 141.055L233 142.145V143.534H237ZM297 67.5338L300.14 70.0124L300.895 69.0557L300.988 67.8406L297 67.5338ZM457 7.53377L456.392 11.4873L456.694 11.5338H457V7.53377ZM537 7.53377L538.943 4.03714L538.036 3.53377H537V7.53377ZM609 47.5338L612.296 45.2676L611.764 44.4934L610.943 44.0371L609 47.5338ZM653 111.534L649.704 113.8L657 124.412V111.534H653ZM629 259.534L625.368 257.858L625 258.655V259.534H629ZM629 383.534L632.073 386.094L633 384.982V383.534H629ZM609 407.534L611.904 410.285L611.991 410.192L612.073 410.095L609 407.534ZM537 483.534L534.096 480.783L532.565 482.399L533.132 484.552L537 483.534ZM557 559.534L553.132 560.552L553.678 562.628L555.711 563.32L557 559.534ZM745 623.534L747.163 620.169L746.752 619.905L746.289 619.747L745 623.534ZM857 695.534H861V693.35L859.163 692.169L857 695.534ZM857 994.628L880.094 971.534L857 948.44L833.906 971.534L857 994.628ZM22.768 699.122L298.768 563.122L295.232 555.946L19.232 691.946L22.768 699.122ZM301 559.534V483.534H293V559.534H301ZM301 483.534V407.534H293V483.534H301ZM300.073 404.973L240.073 332.973L233.927 338.095L293.927 410.095L300.073 404.973ZM241 335.534V259.534H233V335.534H241ZM241 259.534V143.534H233V259.534H241ZM240.14 146.012L300.14 70.0124L293.86 65.0552L233.86 141.055L240.14 146.012ZM300.988 67.8406C302.249 51.4465 314.619 17.4856 353.608 11.4873L352.392 3.58028C308.181 10.3819 294.417 48.9544 293.012 67.227L300.988 67.8406ZM353.608 11.4873C394.682 5.16815 439.317 8.86039 456.392 11.4873L457.608 3.58028C440.016 0.873815 394.518 -2.9006 352.392 3.58028L353.608 11.4873ZM457 11.5338H537V3.53377H457V11.5338ZM535.057 11.0304L607.057 51.0304L610.943 44.0371L538.943 4.03714L535.057 11.0304ZM605.704 49.7999L649.704 113.8L656.296 109.268L612.296 45.2676L605.704 49.7999ZM657 111.534C657 111.513 657 111.492 657 111.471C657 111.45 657 111.43 657 111.409C657 111.388 657 111.367 657 111.346C657 111.326 657 111.305 657 111.284C657 111.263 657 111.243 657 111.222C657 111.201 657 111.18 657 111.16C657 111.139 657 111.118 657 111.098C657 111.077 657 111.056 657 111.036C657 111.015 657 110.994 657 110.974C657 110.953 657 110.932 657 110.912C657 110.891 657 110.87 657 110.85C657 110.829 657 110.809 657 110.788C657 110.767 657 110.747 657 110.726C657 110.706 657 110.685 657 110.665C657 110.644 657 110.624 657 110.603C657 110.583 657 110.562 657 110.542C657 110.521 657 110.501 657 110.48C657 110.46 657 110.44 657 110.419C657 110.399 657 110.378 657 110.358C657 110.338 657 110.317 657 110.297C657 110.277 657 110.256 657 110.236C657 110.216 657 110.195 657 110.175C657 110.155 657 110.135 657 110.114C657 110.094 657 110.074 657 110.054C657 110.034 657 110.013 657 109.993C657 109.973 657 109.953 657 109.933C657 109.913 657 109.893 657 109.872C657 109.852 657 109.832 657 109.812C657 109.792 657 109.772 657 109.752C657 109.732 657 109.712 657 109.692C657 109.672 657 109.652 657 109.632C657 109.613 657 109.593 657 109.573C657 109.553 657 109.533 657 109.513C657 109.493 657 109.474 657 109.454C657 109.434 657 109.414 657 109.395C657 109.375 657 109.355 657 109.335C657 109.316 657 109.296 657 109.276C657 109.257 657 109.237 657 109.218C657 109.198 657 109.178 657 109.159C657 109.139 657 109.12 657 109.1C657 109.081 657 109.061 657 109.042C657 109.022 657 109.003 657 108.984C657 108.964 657 108.945 657 108.926C657 108.906 657 108.887 657 108.868C657 108.848 657 108.829 657 108.81C657 108.791 657 108.771 657 108.752C657 108.733 657 108.714 657 108.695C657 108.676 657 108.657 657 108.637C657 108.618 657 108.599 657 108.58C657 108.561 657 108.542 657 108.523C657 108.504 657 108.486 657 108.467C657 108.448 657 108.429 657 108.41C657 108.391 657 108.372 657 108.354C657 108.335 657 108.316 657 108.298C657 108.279 657 108.26 657 108.242C657 108.223 657 108.204 657 108.186C657 108.167 657 108.149 657 108.13C657 108.112 657 108.093 657 108.075C657 108.056 657 108.038 657 108.019C657 108.001 657 107.983 657 107.964C657 107.946 657 107.928 657 107.91C657 107.891 657 107.873 657 107.855C657 107.837 657 107.819 657 107.8C657 107.782 657 107.764 657 107.746C657 107.728 657 107.71 657 107.692C657 107.674 657 107.656 657 107.638C657 107.621 657 107.603 657 107.585C657 107.567 657 107.549 657 107.532C657 107.514 657 107.496 657 107.478C657 107.461 657 107.443 657 107.426C657 107.408 657 107.39 657 107.373C657 107.355 657 107.338 657 107.321C657 107.303 657 107.286 657 107.268C657 107.251 657 107.234 657 107.216C657 107.199 657 107.182 657 107.165C657 107.147 657 107.13 657 107.113C657 107.096 657 107.079 657 107.062C657 107.045 657 107.028 657 107.011C657 106.994 657 106.977 657 106.96C657 106.943 657 106.927 657 106.91C657 106.893 657 106.876 657 106.86C657 106.843 657 106.826 657 106.81C657 106.793 657 106.776 657 106.76C657 106.743 657 106.727 657 106.71C657 106.694 657 106.678 657 106.661C657 106.645 657 106.629 657 106.612C657 106.596 657 106.58 657 106.564C657 106.547 657 106.531 657 106.515C657 106.499 657 106.483 657 106.467C657 106.451 657 106.435 657 106.419C657 106.403 657 106.388 657 106.372C657 106.356 657 106.34 657 106.325C657 106.309 657 106.293 657 106.278C657 106.262 657 106.246 657 106.231C657 106.215 657 106.2 657 106.185C657 106.169 657 106.154 657 106.138C657 106.123 657 106.108 657 106.093C657 106.077 657 106.062 657 106.047C657 106.032 657 106.017 657 106.002C657 105.987 657 105.972 657 105.957C657 105.942 657 105.927 657 105.912C657 105.898 657 105.883 657 105.868C657 105.853 657 105.839 657 105.824C657 105.81 657 105.795 657 105.781C657 105.766 657 105.752 657 105.737C657 105.723 657 105.708 657 105.694C657 105.68 657 105.666 657 105.652C657 105.637 657 105.623 657 105.609C657 105.595 657 105.581 657 105.567C657 105.553 657 105.539 657 105.525C657 105.512 657 105.498 657 105.484C657 105.47 657 105.457 657 105.443C657 105.429 657 105.416 657 105.402C657 105.389 657 105.375 657 105.362C657 105.348 657 105.335 657 105.322C657 105.309 657 105.295 657 105.282C657 105.269 657 105.256 657 105.243C657 105.23 657 105.217 657 105.204C657 105.191 657 105.178 657 105.165C657 105.152 657 105.14 657 105.127C657 105.114 657 105.102 657 105.089C657 105.076 657 105.064 657 105.051C657 105.039 657 105.027 657 105.014C657 105.002 657 104.99 657 104.977C657 104.965 657 104.953 657 104.941C657 104.929 657 104.917 657 104.905C657 104.893 657 104.881 657 104.869C657 104.857 657 104.845 657 104.834C657 104.822 657 104.81 657 104.799C657 104.787 657 104.776 657 104.764C657 104.753 657 104.741 657 104.73C657 104.719 657 104.707 657 104.696C657 104.685 657 104.674 657 104.663C657 104.652 657 104.641 657 104.63C657 104.619 657 104.608 657 104.597C657 104.586 657 104.576 657 104.565C657 104.554 657 104.544 657 104.533C657 104.522 657 104.512 657 104.502C657 104.491 657 104.481 657 104.471C657 104.46 657 104.45 657 104.44C657 104.43 657 104.42 657 104.41C657 104.4 657 104.39 657 104.38C657 104.37 657 104.36 657 104.35C657 104.341 657 104.331 657 104.321C657 104.312 657 104.302 657 104.293C657 104.283 657 104.274 657 104.265C657 104.255 657 104.246 657 104.237C657 104.228 657 104.219 657 104.21C657 104.201 657 104.192 657 104.183C657 104.174 657 104.165 657 104.156C657 104.148 657 104.139 657 104.13C657 104.122 657 104.113 657 104.105C657 104.096 657 104.088 657 104.08C657 104.072 657 104.063 657 104.055C657 104.047 657 104.039 657 104.031C657 104.023 657 104.015 657 104.007C657 103.999 657 103.992 657 103.984C657 103.976 657 103.968 657 103.961C657 103.953 657 103.946 657 103.939C657 103.931 657 103.924 657 103.917C657 103.909 657 103.902 657 103.895C657 103.888 657 103.881 657 103.874C657 103.867 657 103.86 657 103.853C657 103.847 657 103.84 657 103.833C657 103.827 657 103.82 657 103.814C657 103.807 657 103.801 657 103.795C657 103.788 657 103.782 657 103.776C657 103.77 657 103.764 657 103.758C657 103.752 657 103.746 657 103.74C657 103.734 657 103.728 657 103.723C657 103.717 657 103.712 657 103.706C657 103.701 657 103.695 657 103.69C657 103.684 657 103.679 657 103.674C657 103.669 657 103.664 657 103.659C657 103.654 657 103.649 657 103.644C657 103.639 657 103.634 657 103.63C657 103.625 657 103.62 657 103.616C657 103.611 657 103.607 657 103.603C657 103.598 657 103.594 657 103.59C657 103.586 657 103.582 657 103.578C657 103.574 657 103.57 657 103.566C657 103.562 657 103.558 657 103.555C657 103.551 657 103.547 657 103.544C657 103.54 657 103.537 657 103.534C657 103.53 657 103.527 657 103.524C657 103.521 657 103.518 657 103.515C657 103.512 657 103.509 657 103.506C657 103.504 657 103.501 657 103.498C657 103.496 657 103.493 657 103.491C657 103.488 657 103.486 657 103.484C657 103.481 657 103.479 657 103.477C657 103.475 657 103.473 657 103.471C657 103.469 657 103.468 657 103.466C657 103.464 657 103.463 657 103.461C657 103.46 657 103.458 657 103.457C657 103.455 657 103.454 657 103.453C657 103.452 657 103.451 657 103.45C657 103.449 657 103.448 657 103.447C657 103.446 657 103.446 657 103.445C657 103.444 657 103.444 657 103.444C657 103.443 657 103.443 657 103.443C657 103.442 657 103.442 657 103.442C653 103.442 649 103.442 649 103.442C649 103.443 649 103.443 649 103.443C649 103.443 649 103.444 649 103.444C649 103.445 649 103.446 649 103.446C649 103.447 649 103.448 649 103.449C649 103.45 649 103.451 649 103.452C649 103.453 649 103.454 649 103.456C649 103.457 649 103.458 649 103.46C649 103.461 649 103.463 649 103.465C649 103.466 649 103.468 649 103.47C649 103.472 649 103.474 649 103.476C649 103.478 649 103.48 649 103.483C649 103.485 649 103.487 649 103.49C649 103.492 649 103.495 649 103.498C649 103.5 649 103.503 649 103.506C649 103.509 649 103.512 649 103.515C649 103.518 649 103.521 649 103.525C649 103.528 649 103.532 649 103.535C649 103.539 649 103.542 649 103.546C649 103.55 649 103.553 649 103.557C649 103.561 649 103.565 649 103.569C649 103.574 649 103.578 649 103.582C649 103.587 649 103.591 649 103.596C649 103.6 649 103.605 649 103.61C649 103.614 649 103.619 649 103.624C649 103.629 649 103.634 649 103.639C649 103.645 649 103.65 649 103.655C649 103.661 649 103.666 649 103.672C649 103.677 649 103.683 649 103.689C649 103.695 649 103.701 649 103.707C649 103.713 649 103.719 649 103.725C649 103.731 649 103.738 649 103.744C649 103.751 649 103.757 649 103.764C649 103.771 649 103.778 649 103.784C649 103.791 649 103.798 649 103.805C649 103.813 649 103.82 649 103.827C649 103.835 649 103.842 649 103.85C649 103.857 649 103.865 649 103.873C649 103.88 649 103.888 649 103.896C649 103.904 649 103.912 649 103.921C649 103.929 649 103.937 649 103.946C649 103.954 649 103.963 649 103.972C649 103.98 649 103.989 649 103.998C649 104.007 649 104.016 649 104.025C649 104.034 649 104.043 649 104.053C649 104.062 649 104.072 649 104.081C649 104.091 649 104.101 649 104.11C649 104.12 649 104.13 649 104.14C649 104.15 649 104.16 649 104.171C649 104.181 649 104.191 649 104.202C649 104.212 649 104.223 649 104.234C649 104.245 649 104.255 649 104.266C649 104.277 649 104.289 649 104.3C649 104.311 649 104.322 649 104.334C649 104.345 649 104.357 649 104.368C649 104.38 649 104.392 649 104.404C649 104.416 649 104.428 649 104.44C649 104.452 649 104.465 649 104.477C649 104.489 649 104.502 649 104.515C649 104.527 649 104.54 649 104.553C649 104.566 649 104.579 649 104.592C649 104.605 649 104.618 649 104.632C649 104.645 649 104.659 649 104.672C649 104.686 649 104.699 649 104.713C649 104.727 649 104.741 649 104.755C649 104.769 649 104.784 649 104.798C649 104.812 649 104.827 649 104.841C649 104.856 649 104.871 649 104.886C649 104.9 649 104.915 649 104.93C649 104.946 649 104.961 649 104.976C649 104.991 649 105.007 649 105.023C649 105.038 649 105.054 649 105.07C649 105.086 649 105.102 649 105.118C649 105.134 649 105.15 649 105.166C649 105.183 649 105.199 649 105.216C649 105.232 649 105.249 649 105.266C649 105.283 649 105.3 649 105.317C649 105.334 649 105.351 649 105.369C649 105.386 649 105.403 649 105.421C649 105.439 649 105.456 649 105.474C649 105.492 649 105.51 649 105.528C649 105.547 649 105.565 649 105.583C649 105.602 649 105.62 649 105.639C649 105.657 649 105.676 649 105.695C649 105.714 649 105.733 649 105.752C649 105.772 649 105.791 649 105.81C649 105.83 649 105.849 649 105.869C649 105.889 649 105.909 649 105.929C649 105.949 649 105.969 649 105.989C649 106.009 649 106.03 649 106.05C649 106.071 649 106.091 649 106.112C649 106.133 649 106.154 649 106.175C649 106.196 649 106.217 649 106.238C649 106.26 649 106.281 649 106.303C649 106.324 649 106.346 649 106.368C649 106.39 649 106.412 649 106.434C649 106.456 649 106.478 649 106.501C649 106.523 649 106.546 649 106.568C649 106.591 649 106.614 649 106.637C649 106.66 649 106.683 649 106.706C649 106.729 649 106.752 649 106.776C649 106.799 649 106.823 649 106.847C649 106.871 649 106.895 649 106.919C649 106.943 649 106.967 649 106.991C649 107.016 649 107.04 649 107.065C649 107.089 649 107.114 649 107.139C649 107.164 649 107.189 649 107.214C649 107.239 649 107.264 649 107.29C649 107.315 649 107.341 649 107.367C649 107.392 649 107.418 649 107.444C649 107.47 649 107.496 649 107.523C649 107.549 649 107.576 649 107.602C649 107.629 649 107.655 649 107.682C649 107.709 649 107.736 649 107.763C649 107.791 649 107.818 649 107.845C649 107.873 649 107.9 649 107.928C649 107.956 649 107.984 649 108.012C649 108.04 649 108.068 649 108.096C649 108.125 649 108.153 649 108.182C649 108.21 649 108.239 649 108.268C649 108.297 649 108.326 649 108.355C649 108.384 649 108.414 649 108.443C649 108.473 649 108.502 649 108.532C649 108.562 649 108.592 649 108.622C649 108.652 649 108.682 649 108.713C649 108.743 649 108.773 649 108.804C649 108.835 649 108.866 649 108.897C649 108.928 649 108.959 649 108.99C649 109.021 649 109.053 649 109.084C649 109.116 649 109.148 649 109.179C649 109.211 649 109.243 649 109.275C649 109.308 649 109.34 649 109.372C649 109.405 649 109.438 649 109.47C649 109.503 649 109.536 649 109.569C649 109.602 649 109.635 649 109.669C649 109.702 649 109.736 649 109.769C649 109.803 649 109.837 649 109.871C649 109.905 649 109.939 649 109.973C649 110.008 649 110.042 649 110.077C649 110.111 649 110.146 649 110.181C649 110.216 649 110.251 649 110.286C649 110.322 649 110.357 649 110.393C649 110.428 649 110.464 649 110.5C649 110.536 649 110.572 649 110.608C649 110.644 649 110.68 649 110.717C649 110.753 649 110.79 649 110.827C649 110.864 649 110.9 649 110.938C649 110.975 649 111.012 649 111.049C649 111.087 649 111.124 649 111.162C649 111.2 649 111.238 649 111.276C649 111.314 649 111.352 649 111.391C649 111.429 649 111.468 649 111.506C649 111.545 649 111.584 649 111.623C649 111.662 649 111.701 649 111.74C649 111.78 649 111.819 649 111.859C649 111.899 649 111.938 649 111.979C649 112.018 649 112.059 649 112.099C649 112.139 649 112.18 649 112.22C649 112.261 649 112.302 649 112.343C649 112.384 649 112.425 649 112.466C649 112.508 649 112.549 649 112.591C649 112.632 649 112.674 649 112.716C649 112.758 649 112.8 649 112.842C649 112.885 649 112.927 649 112.97C649 113.012 649 113.055 649 113.098C649 113.141 649 113.184 649 113.227C649 113.271 649 113.314 649 113.358C649 113.401 649 113.445 649 113.489C649 113.533 649 113.577 649 113.621C649 113.666 649 113.71 649 113.755C649 113.799 649 113.844 649 113.889C649 113.934 649 113.979 649 114.024C649 114.07 649 114.115 649 114.161C649 114.206 649 114.252 649 114.298C649 114.344 649 114.39 649 114.436C649 114.483 649 114.529 649 114.576C649 114.622 649 114.669 649 114.716C649 114.763 649 114.81 649 114.858C649 114.905 649 114.952 649 115C649 115.048 649 115.096 649 115.144C649 115.192 649 115.24 649 115.288C649 115.337 649 115.385 649 115.434C649 115.482 649 115.531 649 115.58C649 115.629 649 115.679 649 115.728C649 115.777 649 115.827 649 115.877C649 115.926 649 115.976 649 116.026C649 116.077 649 116.127 649 116.177C649 116.228 649 116.278 649 116.329C649 116.38 649 116.431 649 116.482C649 116.533 649 116.584 649 116.636C649 116.687 649 116.739 649 116.791C649 116.843 649 116.895 649 116.947C649 116.999 649 117.052 649 117.104C649 117.157 649 117.209 649 117.262C649 117.315 649 117.368 649 117.422C649 117.475 649 117.528 649 117.582C649 117.636 649 117.689 649 117.743C649 117.797 649 117.852 649 117.906C649 117.96 649 118.015 649 118.069C649 118.124 649 118.179 649 118.234C649 118.289 649 118.344 649 118.4C649 118.455 649 118.511 649 118.567C649 118.622 649 118.678 649 118.735C649 118.791 649 118.847 649 118.904C649 118.96 649 119.017 649 119.074C649 119.13 649 119.188 649 119.245C649 119.302 649 119.359 649 119.417C649 119.475 649 119.532 649 119.59C649 119.648 649 119.707 649 119.765C649 119.823 649 119.882 649 119.941C649 119.999 649 120.058 649 120.117C649 120.176 649 120.236 649 120.295C649 120.355 649 120.414 649 120.474C649 120.534 649 120.594 649 120.654C649 120.714 649 120.775 649 120.835C649 120.896 649 120.957 649 121.018C649 121.079 649 121.14 649 121.201C649 121.262 649 121.324 649 121.386C649 121.447 649 121.509 649 121.571C649 121.633 649 121.696 649 121.758C649 121.82 649 121.883 649 121.946C649 122.009 649 122.072 649 122.135C649 122.198 649 122.262 649 122.325C649 122.389 649 122.453 649 122.517C649 122.581 649 122.645 649 122.709C649 122.774 649 122.838 649 122.903C649 122.968 649 123.033 649 123.098C649 123.163 649 123.228 649 123.294C649 123.359 649 123.425 649 123.491C649 123.557 649 123.623 649 123.689C649 123.755 649 123.822 649 123.888C649 123.955 649 124.022 649 124.089C649 124.156 649 124.223 649 124.291C649 124.358 649 124.426 649 124.494C649 124.562 649 124.63 649 124.698C649 124.766 649 124.835 649 124.903C649 124.972 649 125.041 649 125.11C649 125.179 649 125.248 649 125.317C649 125.387 649 125.456 649 125.526C649 125.596 649 125.666 649 125.736C649 125.806 649 125.877 649 125.947C649 126.018 649 126.089 649 126.16C649 126.231 649 126.302 649 126.373C649 126.445 649 126.516 649 126.588C649 126.66 649 126.732 649 126.804C649 126.876 649 126.949 649 127.021C649 127.094 649 127.167 649 127.24C649 127.313 649 127.386 649 127.459C649 127.533 649 127.606 649 127.68C649 127.754 649 127.828 649 127.902C649 127.976 649 128.051 649 128.125C649 128.2 649 128.275 649 128.35C649 128.425 649 128.5 649 128.575C649 128.651 649 128.726 649 128.802C649 128.878 649 128.954 649 129.03C649 129.106 649 129.183 649 129.26C649 129.336 649 129.413 649 129.49C649 129.567 649 129.644 649 129.722C649 129.799 649 129.877 649 129.955C649 130.033 649 130.111 649 130.189C649 130.267 649 130.346 649 130.425C649 130.503 649 130.582 649 130.661C649 130.74 649 130.82 649 130.899C649 130.979 649 131.059 649 131.138C649 131.218 649 131.299 649 131.379C649 131.459 649 131.54 649 131.621C649 131.701 649 131.782 649 131.864C649 131.945 649 132.026 649 132.108C649 132.189 649 132.271 649 132.353C649 132.435 649 132.518 649 132.6C649 132.683 649 132.765 649 132.848C649 132.931 649 133.014 649 133.097C649 133.181 649 133.264 649 133.348C649 133.432 649 133.516 649 133.6C649 133.684 649 133.768 649 133.853C649 133.937 649 134.022 649 134.107C649 134.192 649 134.277 649 134.363C649 134.448 649 134.534 649 134.62C649 134.706 649 134.792 649 134.878C649 134.964 649 135.051 649 135.137C649 135.224 649 135.311 649 135.398C649 135.485 649 135.573 649 135.66C649 135.748 649 135.836 649 135.924C649 136.012 649 136.1 649 136.188C649 136.277 649 136.365 649 136.454C649 136.543 649 136.632 649 136.722C649 136.811 649 136.9 649 136.99C649 137.08 649 137.17 649 137.26C649 137.35 649 137.441 649 137.531C649 137.622 649 137.713 649 137.804C649 137.895 649 137.986 649 138.078C649 138.169 649 138.261 649 138.353C649 138.445 649 138.537 649 138.629C649 138.722 649 138.814 649 138.907C649 139 649 139.093 649 139.186C649 139.279 649 139.373 649 139.467C649 139.56 649 139.654 649 139.748C649 139.842 649 139.937 649 140.031C649 140.126 649 140.221 649 140.316C649 140.411 649 140.506 649 140.602C649 140.697 649 140.793 649 140.889C649 140.985 649 141.081 649 141.177C649 141.274 649 141.37 649 141.467C649 141.564 649 141.661 649 141.758C649 141.856 649 141.953 649 142.051C649 142.149 649 142.246 649 142.345C649 142.443 649 142.541 649 142.64C649 142.739 649 142.837 649 142.936C649 143.036 649 143.135 649 143.234C649 143.334 649 143.434 649 143.534H657C657 143.434 657 143.334 657 143.234C657 143.135 657 143.036 657 142.936C657 142.837 657 142.739 657 142.64C657 142.541 657 142.443 657 142.345C657 142.246 657 142.149 657 142.051C657 141.953 657 141.856 657 141.758C657 141.661 657 141.564 657 141.467C657 141.37 657 141.274 657 141.177C657 141.081 657 140.985 657 140.889C657 140.793 657 140.697 657 140.602C657 140.506 657 140.411 657 140.316C657 140.221 657 140.126 657 140.031C657 139.937 657 139.842 657 139.748C657 139.654 657 139.56 657 139.467C657 139.373 657 139.279 657 139.186C657 139.093 657 139 657 138.907C657 138.814 657 138.722 657 138.629C657 138.537 657 138.445 657 138.353C657 138.261 657 138.169 657 138.078C657 137.986 657 137.895 657 137.804C657 137.713 657 137.622 657 137.531C657 137.441 657 137.35 657 137.26C657 137.17 657 137.08 657 136.99C657 136.9 657 136.811 657 136.722C657 136.632 657 136.543 657 136.454C657 136.365 657 136.277 657 136.188C657 136.1 657 136.012 657 135.924C657 135.836 657 135.748 657 135.66C657 135.573 657 135.485 657 135.398C657 135.311 657 135.224 657 135.137C657 135.051 657 134.964 657 134.878C657 134.792 657 134.706 657 134.62C657 134.534 657 134.448 657 134.363C657 134.277 657 134.192 657 134.107C657 134.022 657 133.937 657 133.853C657 133.768 657 133.684 657 133.6C657 133.516 657 133.432 657 133.348C657 133.264 657 133.181 657 133.097C657 133.014 657 132.931 657 132.848C657 132.765 657 132.683 657 132.6C657 132.518 657 132.435 657 132.353C657 132.271 657 132.189 657 132.108C657 132.026 657 131.945 657 131.864C657 131.782 657 131.701 657 131.621C657 131.54 657 131.459 657 131.379C657 131.299 657 131.218 657 131.138C657 131.059 657 130.979 657 130.899C657 130.82 657 130.74 657 130.661C657 130.582 657 130.503 657 130.425C657 130.346 657 130.267 657 130.189C657 130.111 657 130.033 657 129.955C657 129.877 657 129.799 657 129.722C657 129.644 657 129.567 657 129.49C657 129.413 657 129.336 657 129.26C657 129.183 657 129.106 657 129.03C657 128.954 657 128.878 657 128.802C657 128.726 657 128.651 657 128.575C657 128.5 657 128.425 657 128.35C657 128.275 657 128.2 657 128.125C657 128.051 657 127.976 657 127.902C657 127.828 657 127.754 657 127.68C657 127.606 657 127.533 657 127.459C657 127.386 657 127.313 657 127.24C657 127.167 657 127.094 657 127.021C657 126.949 657 126.876 657 126.804C657 126.732 657 126.66 657 126.588C657 126.516 657 126.445 657 126.373C657 126.302 657 126.231 657 126.16C657 126.089 657 126.018 657 125.947C657 125.877 657 125.806 657 125.736C657 125.666 657 125.596 657 125.526C657 125.456 657 125.387 657 125.317C657 125.248 657 125.179 657 125.11C657 125.041 657 124.972 657 124.903C657 124.835 657 124.766 657 124.698C657 124.63 657 124.562 657 124.494C657 124.426 657 124.358 657 124.291C657 124.223 657 124.156 657 124.089C657 124.022 657 123.955 657 123.888C657 123.822 657 123.755 657 123.689C657 123.623 657 123.557 657 123.491C657 123.425 657 123.359 657 123.294C657 123.228 657 123.163 657 123.098C657 123.033 657 122.968 657 122.903C657 122.838 657 122.774 657 122.709C657 122.645 657 122.581 657 122.517C657 122.453 657 122.389 657 122.325C657 122.262 657 122.198 657 122.135C657 122.072 657 122.009 657 121.946C657 121.883 657 121.82 657 121.758C657 121.696 657 121.633 657 121.571C657 121.509 657 121.447 657 121.386C657 121.324 657 121.262 657 121.201C657 121.14 657 121.079 657 121.018C657 120.957 657 120.896 657 120.835C657 120.775 657 120.714 657 120.654C657 120.594 657 120.534 657 120.474C657 120.414 657 120.355 657 120.295C657 120.236 657 120.176 657 120.117C657 120.058 657 119.999 657 119.941C657 119.882 657 119.823 657 119.765C657 119.707 657 119.648 657 119.59C657 119.532 657 119.475 657 119.417C657 119.359 657 119.302 657 119.245C657 119.188 657 119.13 657 119.074C657 119.017 657 118.96 657 118.904C657 118.847 657 118.791 657 118.735C657 118.678 657 118.622 657 118.567C657 118.511 657 118.455 657 118.4C657 118.344 657 118.289 657 118.234C657 118.179 657 118.124 657 118.069C657 118.015 657 117.96 657 117.906C657 117.852 657 117.797 657 117.743C657 117.689 657 117.636 657 117.582C657 117.528 657 117.475 657 117.422C657 117.368 657 117.315 657 117.262C657 117.209 657 117.157 657 117.104C657 117.052 657 116.999 657 116.947C657 116.895 657 116.843 657 116.791C657 116.739 657 116.687 657 116.636C657 116.584 657 116.533 657 116.482C657 116.431 657 116.38 657 116.329C657 116.278 657 116.228 657 116.177C657 116.127 657 116.077 657 116.026C657 115.976 657 115.926 657 115.877C657 115.827 657 115.777 657 115.728C657 115.679 657 115.629 657 115.58C657 115.531 657 115.482 657 115.434C657 115.385 657 115.337 657 115.288C657 115.24 657 115.192 657 115.144C657 115.096 657 115.048 657 115C657 114.952 657 114.905 657 114.858C657 114.81 657 114.763 657 114.716C657 114.669 657 114.622 657 114.576C657 114.529 657 114.483 657 114.436C657 114.39 657 114.344 657 114.298C657 114.252 657 114.206 657 114.161C657 114.115 657 114.07 657 114.024C657 113.979 657 113.934 657 113.889C657 113.844 657 113.799 657 113.755C657 113.71 657 113.666 657 113.621C657 113.577 657 113.533 657 113.489C657 113.445 657 113.401 657 113.358C657 113.314 657 113.271 657 113.227C657 113.184 657 113.141 657 113.098C657 113.055 657 113.012 657 112.97C657 112.927 657 112.885 657 112.842C657 112.8 657 112.758 657 112.716C657 112.674 657 112.632 657 112.591C657 112.549 657 112.508 657 112.466C657 112.425 657 112.384 657 112.343C657 112.302 657 112.261 657 112.22C657 112.18 657 112.139 657 112.099C657 112.059 657 112.018 657 111.979C657 111.938 657 111.899 657 111.859C657 111.819 657 111.78 657 111.74C657 111.701 657 111.662 657 111.623C657 111.584 657 111.545 657 111.506C657 111.468 657 111.429 657 111.391C657 111.352 657 111.314 657 111.276C657 111.238 657 111.2 657 111.162C657 111.124 657 111.087 657 111.049C657 111.012 657 110.975 657 110.938C657 110.9 657 110.864 657 110.827C657 110.79 657 110.753 657 110.717C657 110.68 657 110.644 657 110.608C657 110.572 657 110.536 657 110.5C657 110.464 657 110.428 657 110.393C657 110.357 657 110.322 657 110.286C657 110.251 657 110.216 657 110.181C657 110.146 657 110.111 657 110.077C657 110.042 657 110.008 657 109.973C657 109.939 657 109.905 657 109.871C657 109.837 657 109.803 657 109.769C657 109.736 657 109.702 657 109.669C657 109.635 657 109.602 657 109.569C657 109.536 657 109.503 657 109.47C657 109.438 657 109.405 657 109.372C657 109.34 657 109.308 657 109.275C657 109.243 657 109.211 657 109.179C657 109.148 657 109.116 657 109.084C657 109.053 657 109.021 657 108.99C657 108.959 657 108.928 657 108.897C657 108.866 657 108.835 657 108.804C657 108.773 657 108.743 657 108.713C657 108.682 657 108.652 657 108.622C657 108.592 657 108.562 657 108.532C657 108.502 657 108.473 657 108.443C657 108.414 657 108.384 657 108.355C657 108.326 657 108.297 657 108.268C657 108.239 657 108.21 657 108.182C657 108.153 657 108.125 657 108.096C657 108.068 657 108.04 657 108.012C657 107.984 657 107.956 657 107.928C657 107.9 657 107.873 657 107.845C657 107.818 657 107.791 657 107.763C657 107.736 657 107.709 657 107.682C657 107.655 657 107.629 657 107.602C657 107.576 657 107.549 657 107.523C657 107.496 657 107.47 657 107.444C657 107.418 657 107.392 657 107.367C657 107.341 657 107.315 657 107.29C657 107.264 657 107.239 657 107.214C657 107.189 657 107.164 657 107.139C657 107.114 657 107.089 657 107.065C657 107.04 657 107.016 657 106.991C657 106.967 657 106.943 657 106.919C657 106.895 657 106.871 657 106.847C657 106.823 657 106.799 657 106.776C657 106.752 657 106.729 657 106.706C657 106.683 657 106.66 657 106.637C657 106.614 657 106.591 657 106.568C657 106.546 657 106.523 657 106.501C657 106.478 657 106.456 657 106.434C657 106.412 657 106.39 657 106.368C657 106.346 657 106.324 657 106.303C657 106.281 657 106.26 657 106.238C657 106.217 657 106.196 657 106.175C657 106.154 657 106.133 657 106.112C657 106.091 657 106.071 657 106.05C657 106.03 657 106.009 657 105.989C657 105.969 657 105.949 657 105.929C657 105.909 657 105.889 657 105.869C657 105.849 657 105.83 657 105.81C657 105.791 657 105.772 657 105.752C657 105.733 657 105.714 657 105.695C657 105.676 657 105.657 657 105.639C657 105.62 657 105.602 657 105.583C657 105.565 657 105.547 657 105.528C657 105.51 657 105.492 657 105.474C657 105.456 657 105.439 657 105.421C657 105.403 657 105.386 657 105.369C657 105.351 657 105.334 657 105.317C657 105.3 657 105.283 657 105.266C657 105.249 657 105.232 657 105.216C657 105.199 657 105.183 657 105.166C657 105.15 657 105.134 657 105.118C657 105.102 657 105.086 657 105.07C657 105.054 657 105.038 657 105.023C657 105.007 657 104.991 657 104.976C657 104.961 657 104.946 657 104.93C657 104.915 657 104.9 657 104.886C657 104.871 657 104.856 657 104.841C657 104.827 657 104.812 657 104.798C657 104.784 657 104.769 657 104.755C657 104.741 657 104.727 657 104.713C657 104.699 657 104.686 657 104.672C657 104.659 657 104.645 657 104.632C657 104.618 657 104.605 657 104.592C657 104.579 657 104.566 657 104.553C657 104.54 657 104.527 657 104.515C657 104.502 657 104.489 657 104.477C657 104.465 657 104.452 657 104.44C657 104.428 657 104.416 657 104.404C657 104.392 657 104.38 657 104.368C657 104.357 657 104.345 657 104.334C657 104.322 657 104.311 657 104.3C657 104.289 657 104.277 657 104.266C657 104.255 657 104.245 657 104.234C657 104.223 657 104.212 657 104.202C657 104.191 657 104.181 657 104.171C657 104.16 657 104.15 657 104.14C657 104.13 657 104.12 657 104.11C657 104.101 657 104.091 657 104.081C657 104.072 657 104.062 657 104.053C657 104.043 657 104.034 657 104.025C657 104.016 657 104.007 657 103.998C657 103.989 657 103.98 657 103.972C657 103.963 657 103.954 657 103.946C657 103.937 657 103.929 657 103.921C657 103.912 657 103.904 657 103.896C657 103.888 657 103.88 657 103.873C657 103.865 657 103.857 657 103.85C657 103.842 657 103.835 657 103.827C657 103.82 657 103.813 657 103.805C657 103.798 657 103.791 657 103.784C657 103.778 657 103.771 657 103.764C657 103.757 657 103.751 657 103.744C657 103.738 657 103.731 657 103.725C657 103.719 657 103.713 657 103.707C657 103.701 657 103.695 657 103.689C657 103.683 657 103.677 657 103.672C657 103.666 657 103.661 657 103.655C657 103.65 657 103.645 657 103.639C657 103.634 657 103.629 657 103.624C657 103.619 657 103.614 657 103.61C657 103.605 657 103.6 657 103.596C657 103.591 657 103.587 657 103.582C657 103.578 657 103.574 657 103.569C657 103.565 657 103.561 657 103.557C657 103.553 657 103.55 657 103.546C657 103.542 657 103.539 657 103.535C657 103.532 657 103.528 657 103.525C657 103.521 657 103.518 657 103.515C657 103.512 657 103.509 657 103.506C657 103.503 657 103.5 657 103.498C657 103.495 657 103.492 657 103.49C657 103.487 657 103.485 657 103.483C657 103.48 657 103.478 657 103.476C657 103.474 657 103.472 657 103.47C657 103.468 657 103.466 657 103.465C657 103.463 657 103.461 657 103.46C657 103.458 657 103.457 657 103.456C657 103.454 657 103.453 657 103.452C657 103.451 657 103.45 657 103.449C657 103.448 657 103.447 657 103.446C657 103.446 657 103.445 657 103.444C657 103.444 657 103.443 657 103.443C657 103.443 657 103.443 657 103.442C657 103.442 653 103.442 649 103.442C649 103.442 649 103.442 649 103.443C649 103.443 649 103.443 649 103.444C649 103.444 649 103.444 649 103.445C649 103.446 649 103.446 649 103.447C649 103.448 649 103.449 649 103.45C649 103.451 649 103.452 649 103.453C649 103.454 649 103.455 649 103.457C649 103.458 649 103.46 649 103.461C649 103.463 649 103.464 649 103.466C649 103.468 649 103.469 649 103.471C649 103.473 649 103.475 649 103.477C649 103.479 649 103.481 649 103.484C649 103.486 649 103.488 649 103.491C649 103.493 649 103.496 649 103.498C649 103.501 649 103.504 649 103.506C649 103.509 649 103.512 649 103.515C649 103.518 649 103.521 649 103.524C649 103.527 649 103.53 649 103.534C649 103.537 649 103.54 649 103.544C649 103.547 649 103.551 649 103.555C649 103.558 649 103.562 649 103.566C649 103.57 649 103.574 649 103.578C649 103.582 649 103.586 649 103.59C649 103.594 649 103.598 649 103.603C649 103.607 649 103.611 649 103.616C649 103.62 649 103.625 649 103.63C649 103.634 649 103.639 649 103.644C649 103.649 649 103.654 649 103.659C649 103.664 649 103.669 649 103.674C649 103.679 649 103.684 649 103.69C649 103.695 649 103.701 649 103.706C649 103.712 649 103.717 649 103.723C649 103.728 649 103.734 649 103.74C649 103.746 649 103.752 649 103.758C649 103.764 649 103.77 649 103.776C649 103.782 649 103.788 649 103.795C649 103.801 649 103.807 649 103.814C649 103.82 649 103.827 649 103.833C649 103.84 649 103.847 649 103.853C649 103.86 649 103.867 649 103.874C649 103.881 649 103.888 649 103.895C649 103.902 649 103.909 649 103.917C649 103.924 649 103.931 649 103.939C649 103.946 649 103.953 649 103.961C649 103.968 649 103.976 649 103.984C649 103.992 649 103.999 649 104.007C649 104.015 649 104.023 649 104.031C649 104.039 649 104.047 649 104.055C649 104.063 649 104.072 649 104.08C649 104.088 649 104.096 649 104.105C649 104.113 649 104.122 649 104.13C649 104.139 649 104.148 649 104.156C649 104.165 649 104.174 649 104.183C649 104.192 649 104.201 649 104.21C649 104.219 649 104.228 649 104.237C649 104.246 649 104.255 649 104.265C649 104.274 649 104.283 649 104.293C649 104.302 649 104.312 649 104.321C649 104.331 649 104.341 649 104.35C649 104.36 649 104.37 649 104.38C649 104.39 649 104.4 649 104.41C649 104.42 649 104.43 649 104.44C649 104.45 649 104.46 649 104.471C649 104.481 649 104.491 649 104.502C649 104.512 649 104.522 649 104.533C649 104.544 649 104.554 649 104.565C649 104.576 649 104.586 649 104.597C649 104.608 649 104.619 649 104.63C649 104.641 649 104.652 649 104.663C649 104.674 649 104.685 649 104.696C649 104.707 649 104.719 649 104.73C649 104.741 649 104.753 649 104.764C649 104.776 649 104.787 649 104.799C649 104.81 649 104.822 649 104.834C649 104.845 649 104.857 649 104.869C649 104.881 649 104.893 649 104.905C649 104.917 649 104.929 649 104.941C649 104.953 649 104.965 649 104.977C649 104.99 649 105.002 649 105.014C649 105.027 649 105.039 649 105.051C649 105.064 649 105.076 649 105.089C649 105.102 649 105.114 649 105.127C649 105.14 649 105.152 649 105.165C649 105.178 649 105.191 649 105.204C649 105.217 649 105.23 649 105.243C649 105.256 649 105.269 649 105.282C649 105.295 649 105.309 649 105.322C649 105.335 649 105.348 649 105.362C649 105.375 649 105.389 649 105.402C649 105.416 649 105.429 649 105.443C649 105.457 649 105.47 649 105.484C649 105.498 649 105.512 649 105.525C649 105.539 649 105.553 649 105.567C649 105.581 649 105.595 649 105.609C649 105.623 649 105.637 649 105.652C649 105.666 649 105.68 649 105.694C649 105.708 649 105.723 649 105.737C649 105.752 649 105.766 649 105.781C649 105.795 649 105.81 649 105.824C649 105.839 649 105.853 649 105.868C649 105.883 649 105.898 649 105.912C649 105.927 649 105.942 649 105.957C649 105.972 649 105.987 649 106.002C649 106.017 649 106.032 649 106.047C649 106.062 649 106.077 649 106.093C649 106.108 649 106.123 649 106.138C649 106.154 649 106.169 649 106.185C649 106.2 649 106.215 649 106.231C649 106.246 649 106.262 649 106.278C649 106.293 649 106.309 649 106.325C649 106.34 649 106.356 649 106.372C649 106.388 649 106.403 649 106.419C649 106.435 649 106.451 649 106.467C649 106.483 649 106.499 649 106.515C649 106.531 649 106.547 649 106.564C649 106.58 649 106.596 649 106.612C649 106.629 649 106.645 649 106.661C649 106.678 649 106.694 649 106.71C649 106.727 649 106.743 649 106.76C649 106.776 649 106.793 649 106.81C649 106.826 649 106.843 649 106.86C649 106.876 649 106.893 649 106.91C649 106.927 649 106.943 649 106.96C649 106.977 649 106.994 649 107.011C649 107.028 649 107.045 649 107.062C649 107.079 649 107.096 649 107.113C649 107.13 649 107.147 649 107.165C649 107.182 649 107.199 649 107.216C649 107.234 649 107.251 649 107.268C649 107.286 649 107.303 649 107.321C649 107.338 649 107.355 649 107.373C649 107.39 649 107.408 649 107.426C649 107.443 649 107.461 649 107.478C649 107.496 649 107.514 649 107.532C649 107.549 649 107.567 649 107.585C649 107.603 649 107.621 649 107.638C649 107.656 649 107.674 649 107.692C649 107.71 649 107.728 649 107.746C649 107.764 649 107.782 649 107.8C649 107.819 649 107.837 649 107.855C649 107.873 649 107.891 649 107.91C649 107.928 649 107.946 649 107.964C649 107.983 649 108.001 649 108.019C649 108.038 649 108.056 649 108.075C649 108.093 649 108.112 649 108.13C649 108.149 649 108.167 649 108.186C649 108.204 649 108.223 649 108.242C649 108.26 649 108.279 649 108.298C649 108.316 649 108.335 649 108.354C649 108.372 649 108.391 649 108.41C649 108.429 649 108.448 649 108.467C649 108.486 649 108.504 649 108.523C649 108.542 649 108.561 649 108.58C649 108.599 649 108.618 649 108.637C649 108.657 649 108.676 649 108.695C649 108.714 649 108.733 649 108.752C649 108.771 649 108.791 649 108.81C649 108.829 649 108.848 649 108.868C649 108.887 649 108.906 649 108.926C649 108.945 649 108.964 649 108.984C649 109.003 649 109.022 649 109.042C649 109.061 649 109.081 649 109.1C649 109.12 649 109.139 649 109.159C649 109.178 649 109.198 649 109.218C649 109.237 649 109.257 649 109.276C649 109.296 649 109.316 649 109.335C649 109.355 649 109.375 649 109.395C649 109.414 649 109.434 649 109.454C649 109.474 649 109.493 649 109.513C649 109.533 649 109.553 649 109.573C649 109.593 649 109.613 649 109.632C649 109.652 649 109.672 649 109.692C649 109.712 649 109.732 649 109.752C649 109.772 649 109.792 649 109.812C649 109.832 649 109.852 649 109.872C649 109.893 649 109.913 649 109.933C649 109.953 649 109.973 649 109.993C649 110.013 649 110.034 649 110.054C649 110.074 649 110.094 649 110.114C649 110.135 649 110.155 649 110.175C649 110.195 649 110.216 649 110.236C649 110.256 649 110.277 649 110.297C649 110.317 649 110.338 649 110.358C649 110.378 649 110.399 649 110.419C649 110.44 649 110.46 649 110.48C649 110.501 649 110.521 649 110.542C649 110.562 649 110.583 649 110.603C649 110.624 649 110.644 649 110.665C649 110.685 649 110.706 649 110.726C649 110.747 649 110.767 649 110.788C649 110.809 649 110.829 649 110.85C649 110.87 649 110.891 649 110.912C649 110.932 649 110.953 649 110.974C649 110.994 649 111.015 649 111.036C649 111.056 649 111.077 649 111.098C649 111.118 649 111.139 649 111.16C649 111.18 649 111.201 649 111.222C649 111.243 649 111.263 649 111.284C649 111.305 649 111.326 649 111.346C649 111.367 649 111.388 649 111.409C649 111.43 649 111.45 649 111.471C649 111.492 649 111.513 649 111.534H657ZM649 143.534C649 194.032 633.183 240.925 625.368 257.858L632.632 261.21C640.817 243.475 657 195.435 657 143.534H649ZM625 259.534V335.534H633V259.534H625ZM625 335.534V383.534H633V335.534H625ZM625.927 380.973L605.927 404.973L612.073 410.095L632.073 386.094L625.927 380.973ZM606.096 404.783L534.096 480.783L539.904 486.285L611.904 410.285L606.096 404.783ZM533.132 484.552L553.132 560.552L560.868 558.516L540.868 482.516L533.132 484.552ZM555.711 563.32L743.711 627.32L746.289 619.747L558.289 555.747L555.711 563.32ZM742.837 626.898L854.837 698.898L859.163 692.169L747.163 620.169L742.837 626.898ZM853 695.534V971.534H861V695.534H853Z" fill="#0A2647"/>
</svg>
