<svg width="688" height="556" viewBox="0 0 688 556" fill="none" xmlns="http://www.w3.org/2000/svg">
<path d="M420.947 241.546C420.061 254.004 416.49 273.711 413.805 279.107C411.438 283.865 416.436 245.359 423.578 204.696C428.769 175.142 445.003 152.167 469.972 130.285C498.084 105.65 529.147 101.047 547.444 102.363C557.11 103.058 566.627 109.88 572.977 120.593C587.326 144.801 582.951 185.835 575.393 232.243C571.385 256.857 559.861 282.195 542.88 311.379C525.898 340.564 501.976 372.46 482.564 391.549C463.153 410.639 448.977 415.955 433.7 418.25C418.423 420.546 402.475 419.66 386.728 413.887C353.957 401.874 328.883 359.949 315.418 309.487C309.241 286.335 321.446 265.227 337.957 239.667C354.469 214.107 379.278 183.983 401.361 161.376C439.689 122.139 470.08 106.444 486.162 100.631C493.281 98.0578 498.7 97.4763 505.869 101.893C524.079 113.112 533.684 146.475 537.711 187.983C539.756 209.058 539.081 230.377 533.765 254.621C522.356 306.653 499.774 337.261 485.491 343.531C478.69 346.515 471.207 344.484 465.341 340.483C459.474 336.483 455.044 329.395 452.762 319.098C447.634 295.963 467.314 260.555 504.338 219.92C542.314 178.24 585.475 159.282 607.84 154.301C616.093 152.464 617.801 167.927 616.942 182.278C616.082 196.628 612.538 213.462 596.094 242.07C579.649 270.677 550.411 310.547 530.033 335.073C501.325 369.624 480.98 378.447 468.912 382.032C464.056 383.474 461.273 382.072 460.79 378.071C456.559 343.048 520.985 305.231 548.397 291.686C552.927 289.448 556.908 291.646 560.063 294.317C567.066 300.248 568.614 313.957 566.399 330.469C563.923 348.927 530.382 377.373 479.946 413.122C455.567 430.403 428.625 438.239 403.871 443.703C379.116 449.167 356.08 450.053 331.809 446.965C307.538 443.877 282.73 436.789 260.647 426.05C238.564 415.31 219.958 401.134 209.93 387.187C199.902 373.239 199.016 359.949 202.546 343.356C210.429 306.311 239.101 271.241 270.366 243.533C294.369 222.261 314.384 214.724 328.654 210.697C345.849 205.844 373.344 216.416 411.697 239.116C434.576 252.658 458.911 278.651 478.349 302.05C513.862 344.798 528.287 388.14 536.785 420.304C540.563 434.604 540.853 445.381 539.98 452.187C539.107 458.993 536.449 461.651 530.65 463.463C516.423 467.909 486.484 461.759 445.862 446.616C402.363 430.401 371.867 393.832 349.502 365.265C313.983 319.895 360.054 273.818 367.639 266.207C370.919 262.915 376.109 264.797 383.265 271.012C401.759 287.078 416.409 319.219 427.135 357.599C438.114 396.883 437.056 426.721 436.17 433.487C434.594 445.519 431.686 393.858 436.116 357.277C438.549 337.186 449.406 315.38 467.704 283.591C486.001 251.802 513.467 211.046 531.603 182.076C559.172 138.039 570.359 116.297 577.071 111.8C581.162 109.059 577.582 135.789 570.91 167.471C563.352 203.357 537.416 233.357 511.977 257.481C488.501 279.743 459.555 287.162 433.23 290.746C404.512 294.656 378.982 281.9 362.443 265.388C348.122 251.09 348.455 231.773 350.227 216.161C354.18 181.333 375.25 165.564 378.888 156.087C380.786 151.143 371.733 211.529 370.391 267.187C369.767 293.038 376.136 182.721 385.533 144.703C389.001 130.672 388.728 127.064 384.741 127.01C342.89 126.446 310.008 177.056 304.638 186.882C302.305 191.152 302.813 194.937 303.256 198.535C304.143 205.744 337.394 213.758 406.099 220.027C442.802 223.376 483.665 220.98 509.977 219.195C536.288 217.409 546.92 214.751 553.727 212.496C560.533 210.241 563.191 208.469 558.801 230.592C554.411 252.715 542.893 298.787 528.1 333.597C513.306 368.406 495.586 390.556 479.369 406.84C451.132 435.194 414.879 447.341 376.485 454.496C340.309 461.238 304.773 450.16 277.051 432.306C265.179 424.659 261.734 414.451 259.452 405.014C254.911 386.237 260.714 366.043 268.742 347.289C276.457 329.265 294.651 314.118 312.089 301.593C320.954 295.226 327.836 295.243 338.521 296.572C356.598 298.821 376.109 313.93 392.192 334.912C406.601 353.712 411.979 373.91 409.348 391.321C406.01 413.412 360.322 419.606 300.611 424.09C264.027 426.837 214.32 423.258 179.014 418.801C123.454 411.787 92.6147 390.207 71.619 360.378C41.1883 317.145 47.7506 275.59 48.1936 282.625C50.4193 317.966 56.6375 363.063 69.1355 399.685C80.0227 431.586 95.1116 452.684 109.395 464.752C121.768 475.206 152.245 474.243 199.526 470.243C256.094 465.457 298.222 452.791 321.432 443.877C346.024 434.433 368.914 409.055 389.923 376.93C410.708 345.148 407.522 318.548 411.509 319.38C431.681 323.591 444.09 361.345 470.858 384.569C498.156 408.253 524.69 415.149 531.442 414.733C543.228 414.007 498.083 392.865 463.273 379.911C427.657 366.656 392.46 359.734 365.652 348.578C344.319 339.701 335.058 324.831 331.031 313.675C326.915 302.276 335.863 282.839 350.576 256.957C367.198 227.718 400.166 198.749 438.559 171.928C471.383 148.997 506.728 149.375 530.851 150.69C551.076 151.793 566.735 177.861 581.045 208.2C595.824 239.534 588.321 277.174 581.206 310.654C573.815 345.432 542.813 372.084 516.89 391.764C501.508 403.442 465.086 402.638 413.268 399.537C371.12 397.015 348.509 377.642 340.454 362.486C319.038 322.187 355.543 275.698 360.094 264.367C362.886 257.418 329.017 309.232 290.543 355.357C278.308 370.025 275.105 361.613 274.635 349.988C274.165 338.362 275.051 322.414 278.609 295.592C282.166 268.771 288.368 231.558 291.563 205.743C294.758 179.928 294.758 166.638 286.784 155.805C268.745 131.298 231.368 129.668 201.459 134.554C170.796 139.564 149.856 162.692 134.23 191.635C110.58 235.439 111.301 281.685 111.288 306.251C111.277 326.695 121.987 342.604 133.129 356.888C146.126 373.549 171.12 385.562 200.56 399.403C234.126 415.183 283.723 418.747 332.011 417.418C386.04 415.931 421.779 371.386 430.733 356.66C434.951 349.722 432.599 341.047 427.269 333.395C415.219 316.094 386.204 306.923 351.852 298.881C313.599 289.927 273.467 289.874 239.517 291.203C212.381 292.265 194.586 303.244 182.974 316.172C169.641 331.016 165.911 359.519 161.441 397.859C155.556 448.333 156.944 480.472 155.159 481.398C147.94 485.143 154.232 449.355 165.777 390.61C173.91 349.229 193.27 285.793 206.829 243.184C220.387 200.575 229.247 181.083 234.255 175.472C238.735 170.451 240.175 201.139 234.845 231.907C222.66 302.257 197.244 314.011 190.102 318.038C186.749 319.929 182.96 319.407 180.249 318.078C165.884 311.038 177.483 262.381 195.781 214.416C203.604 193.908 221.3 184.305 234.255 178.935C243.915 174.931 253.545 177.995 262.916 184.211C294.767 205.338 284.019 257.441 272.903 292.881C269.814 302.729 258.244 310.279 250.579 314.843C238.035 322.312 223.233 317.635 210.279 311.406C196.337 304.703 192.76 283.698 189.176 265.401C185.488 246.576 196.25 222.886 218.937 186.359C233.97 162.156 262.003 130.339 282.784 108.135C315.556 73.1188 339.434 61.6871 351.946 57.6598C357.27 55.9459 360.913 56.2905 365.84 59.3916C378.116 67.1183 384.245 84.8306 385.144 106.685C386.225 132.962 378.043 168.84 367.773 205.488C363.412 221.051 358.389 229.733 353.006 236.512C347.623 243.291 341.421 247.721 337.783 245.13C334.145 242.54 333.259 232.793 335.018 222.457C338.684 200.903 367.035 167.498 408.113 127.278C441.494 94.5951 475.422 85.8509 498.19 82.7096C519.904 79.7137 540.772 94.6841 559.083 115.639C579.708 139.243 582.924 176.035 583.824 209.529C584.604 238.595 573.178 266.462 554.881 293.257C537.883 318.149 509.708 335.436 478.013 348.847C448.677 361.26 410.422 359.68 372.445 357.465C343.491 355.776 326.144 340.054 316.304 326.67C295.906 298.925 321.499 242.727 341.676 206.737C344.996 200.814 348.402 198.642 351.986 200.374C362.14 205.28 370.767 227.102 382.822 259.186C399.56 303.734 398.582 348.78 392.809 380.031C386.901 412.018 356.644 437.407 327.205 461.53C312.163 473.856 292.449 480.338 263.372 484.446C234.295 488.554 195.311 488.554 169.026 485.01C142.741 481.466 130.337 474.377 122.175 467.625C114.013 460.873 110.469 454.671 110.415 444.388C110.286 419.681 130.847 385.831 170.033 339.906C194.051 311.757 234.026 280.691 257.64 262.918C281.253 245.144 289.227 243.372 295.55 242.459C306.231 240.917 320.613 248.634 340.253 266.019C363.236 286.362 375.25 315.702 384.191 342.47C393.945 371.673 389.641 401.618 383.412 426.171C376.937 451.695 354.818 472.337 333.407 491.547C311.818 510.916 263.748 511.831 207.017 505.173C180.836 502.1 161.804 488.768 150.433 478.418C139.063 468.068 136.405 458.322 138.58 444.441C140.754 430.561 147.842 412.84 159.468 392.194C171.093 371.547 187.041 348.511 212.091 320.696C237.141 292.881 270.809 260.985 296.57 239.237C337.455 204.723 370.686 192.359 397.924 186.99C410.864 184.439 422.504 185.164 434.639 188.265C446.775 191.366 459.179 197.568 475.758 216.268C492.337 234.968 512.715 265.978 525.871 294.357C549.551 345.439 548.934 388.166 544.491 414.975C540.893 436.682 519.481 449.999 499.855 464.282C477.847 480.299 446.184 488.527 399.401 491.668C370.398 493.615 330.467 490.379 301.067 487.251C253.614 482.203 224.173 468.927 205.835 457.315C198.481 452.658 197.244 447.475 195.888 442.978C189.151 420.634 230.107 371.601 261.546 342.739C266.907 337.818 273.172 337.342 277.239 337.315C281.307 337.288 283.965 339.06 286.22 344.403C301.664 380.99 290.301 419.606 287.616 427.191C286.234 431.096 286.703 435.662 274.299 434.4C236.358 430.54 194.693 410.773 163.428 394.704C136.282 380.752 118.524 364.218 107.341 352.605C88.9011 333.457 106.764 290.008 124.565 255.252C151.891 201.898 185.484 165.564 197.579 150.811C201.842 145.612 198.157 142.26 200.331 136.904C202.506 131.547 209.594 123.573 220.777 119.465C245.712 110.306 288.234 132.192 331.594 163.457C387.757 203.953 391.413 252.259 389.198 250.084C376.016 237.142 373.559 201.461 367.29 155.55C363.587 128.435 366.337 92.8047 369.451 68.7886C374.148 32.5713 391.333 12.5273 405.186 5.30499C410.599 2.48342 414.61 19.3468 417.765 51.4309C425.953 134.704 423.658 187.849 418.302 183.419C407.26 174.287 410.207 144.166 412.422 113.344C414.25 87.9083 428.947 72.4534 439.66 67.0568C464.592 54.497 479.047 116.968 485.383 128.352C507.253 167.643 463.904 33.9793 464.79 26.7973C467.578 4.20193 481.786 103.437 464.925 148.301C450.772 185.958 407.63 197.649 387.533 204.804C370.757 210.777 353.02 209.328 331.621 203.569C271.476 187.381 264.419 135.172 250.511 110.525C247.02 104.337 241.168 99.3558 237.101 96.6172C231.077 92.5616 221.434 94.7646 209.822 98.3221C198.22 101.877 190.988 119.734 183.39 138.488C176.749 154.879 179.282 187.607 184.638 227.84C190.545 272.205 195.391 297.015 201.191 299.257C232.467 311.348 262.513 237.089 265.211 235.29C278.843 226.202 238.43 279.886 231.677 311.661C229.535 321.743 232.093 335.248 236.98 346.967C246.789 370.494 277.575 389.106 313.727 407.873C348.7 426.029 391.198 427.688 434.049 428.144C476.953 428.601 505.896 420.573 518.407 412.988C528.956 406.593 532.798 388.435 534.597 359.465C535.678 342.047 532.852 318.978 524.408 279.644C515.964 240.311 500.902 185.379 493.143 154.865C484.321 120.175 486.269 112.7 488.498 107.343C489.655 104.561 491.612 101.987 494.297 99.2886C500.092 93.4652 541.39 89.4218 603.531 89.3949C628.521 89.3841 639.978 96.4561 651.227 106.726C675.949 129.294 684.949 157.322 682.748 177.848C680.134 202.218 652.865 222.645 626.54 240.969C600.756 258.917 567.862 258.541 539.738 258.998C485.439 259.879 454.132 230.86 443.808 223.652C436.251 218.374 426.37 258.3 417.872 307.406C409.772 354.219 415.55 387.334 419.577 409.619C425.121 440.296 420.061 461.678 418.275 467.034C414.968 476.955 404.864 480.472 398.179 483.613C389.643 487.624 369.182 470.753 340.172 447.126C282.388 400.065 286.703 369.587 285.374 359.747C283.923 349 265.278 352.538 246.524 334.268C211.812 300.45 185.645 265.871 182.88 238.069C179.069 199.756 224.871 170.021 257.774 146.435C282.07 129.018 324.345 104.242 346.24 89.6768C370.019 73.8586 371.706 67.0568 374.391 61.7005C375.668 59.154 375.304 56.3442 373.089 53.2029C358.88 33.0514 312.854 34.8116 265.829 29.9118C246.173 27.8637 217.971 24.0722 198.157 28.9721C190.89 30.769 182.047 35.6708 173.107 43.2555C165.448 49.753 165.885 61.6066 166.771 74.5342C167.971 92.0531 187.202 123.197 214.467 157.631C229.882 177.099 262.298 184.224 302.088 190.936C317.895 193.603 325.043 193.219 328.695 179.928C339.302 141.322 329.688 100.269 325.218 70.8425C322.647 53.9184 322.52 32.5563 318.519 25.1461C314.519 17.7359 307.431 24.8239 302.893 30.2474C286 50.4392 270.621 78.5749 269.695 92.8852C267.854 121.32 317.096 129.587 321.58 146.113C325.218 159.52 313.606 173.458 303.336 185.083C295.85 193.558 270.782 190.561 231.959 186.533C190.677 182.251 165.911 186.936 160.112 191.393C143.718 203.992 134.633 248.419 123.853 278.168C122.197 282.738 121.155 286.222 119.369 285.39C99.8392 276.286 106.818 238.083 101.502 221.517C96.5268 206.015 71.9412 220.067 66.1419 220.953C35.2579 225.672 6.59165 265.683 5.24922 271.482C2.31707 284.149 25.1978 314.682 77.0827 359.532C114.192 391.61 141.64 409.699 152.836 420.036C159.005 425.731 153.346 368.97 158.233 306.882C164.523 226.957 179.309 205.891 169.952 183.889C164.686 171.506 153.427 157.51 140.862 140.031C138.266 136.421 139.036 132.433 140.365 138.582C145.109 160.528 147.091 181.539 144.433 178.949C103.727 139.271 113.986 101.987 112.644 97.4763C110.388 89.8982 121.933 148.999 137.586 205.811C143.249 226.365 145.265 229.84 153.266 206.415C161.267 182.989 175.443 132.487 195.593 125.52C215.743 118.553 241.437 156.651 260.432 182.479C289.413 221.886 306.357 238.808 312.169 243.761C317.713 248.485 306.491 186.506 294.825 119.828C290.954 97.7034 299.108 98.3355 319.58 105.88C375.088 126.336 422.611 145.75 438.304 145.361C454.023 144.971 429.001 114.498 430.33 108.243C433.193 94.7681 500.096 87.7034 560.855 82.6962C569.455 81.9874 573.017 81.3672 575.729 79.5817C578.441 77.7963 580.213 75.1383 577.582 76.427C574.95 77.7158 567.862 83.0318 561.996 87.0993C551.889 94.1069 591.435 64.6673 650.583 22.5418C652.568 21.1278 625.963 45.4705 613.008 60.6534C602.034 73.5156 583.972 105.262 558.506 148.167C527.601 200.233 506.916 227.155 500.19 237.895C498.142 241.165 501.519 249.52 496.606 263.374C494.501 269.309 492.579 272.798 502.298 274.624C532.802 280.354 558.734 279.107 564.104 284.907C575.248 296.943 592.67 324.616 602.604 353.76C604.803 360.209 603.517 366.714 600.859 371.681C589.729 392.481 557.982 390.073 547.149 391.898C537.459 393.531 572.131 397.241 581.971 402.598C585.95 404.763 586.495 407.954 583.851 409.323C566.383 418.368 550.76 402.665 546.706 398.194C545.462 396.823 552.398 395.496 558.68 399.027C564.963 402.557 572.051 410.531 575.702 416.411C579.354 422.291 579.354 425.835 575.367 428.104C546.065 444.777 484.793 425.083 448.332 402.275C442.353 398.535 441.566 394.637 441.539 391.939C441.513 389.24 443.285 386.582 449.957 385.213C494.508 376.07 537.174 408.867 550.196 412.022C583.201 420.018 509.547 357.022 510.433 351.666C510.897 348.864 513.091 346.309 516.662 344.94C525.058 341.721 535.456 344.457 539.953 346.242C554.237 351.913 506.03 348.055 501.506 343.611C490.787 333.083 549.552 321.26 596.47 311.42C616.69 307.179 630.097 306.896 635.172 308.654C640.246 310.413 636.702 314.843 630.446 318.454C601.257 335.304 571.406 330.147 553.082 333.248C526.158 337.804 520.394 376.541 494.002 402.544C477.716 418.589 447.956 427.634 409.173 436.588C358.403 448.31 311.028 426.909 285.536 406.37C274.823 397.739 273.333 387.603 274.179 376.836C278.174 325.974 325.043 293.579 347.046 283.618C350.751 281.94 353.771 285.363 356.027 290.263C368.059 316.406 358.336 352.324 339.609 385.065C326.32 408.299 286.918 414.263 249.384 410.29C218.512 407.022 200.895 368.782 183.014 338.429C166.663 310.674 168.569 279.268 172.556 253.816C174.537 241.171 184.518 231.021 193.498 224.215C210.221 211.542 235.557 213.785 261.452 220.014C287.454 226.268 310.733 253.037 335.299 286.92C363.978 326.475 367.222 370.285 371.693 397.067C376.124 423.617 369.102 451.717 356.161 477.626C345.077 499.816 324.399 516.208 302.531 531.847C281.899 546.602 251.075 549.393 214.494 550.748C172.513 552.304 132.055 536.076 98.5616 517.335C67.5175 499.965 51.3752 473.465 44.22 448.026C37.0255 422.446 45.012 391.174 54.8386 361.68C66.9214 325.416 79.0561 306.949 90.2117 278.785C93.0402 271.644 119.141 299.459 159.32 354.78C202.383 414.073 219.555 454.509 223.582 463.423C225.864 468.473 224.952 475.881 224.952 475.102C224.952 474.324 224.952 465.464 228.939 456.026C237.736 435.202 274.809 420.6 322.157 411.203C360.038 403.684 386.849 411.552 402.488 418.693C409.469 421.881 413.697 425.835 415.98 429.433C418.262 433.031 418.262 436.575 417.376 440.615C415.474 449.287 400.488 464.282 369.29 484.822C351.545 496.504 325.688 503.589 299.618 509.925C247.564 522.577 200.976 523.457 169.241 522.128C156.056 521.576 149.024 518.141 145.815 515.442C141.347 511.685 169.214 498.488 223.636 482.848C252.834 474.457 286.918 471.639 321.54 469.357C356.161 467.075 390.715 467.075 424.907 471.062C492.483 478.942 527.428 493.896 526.126 497.924C525.091 501.126 515.078 499.293 487.048 495.306C459.018 491.319 411.174 483.345 375.895 476.136C340.615 468.927 319.351 462.725 299.98 449.784C280.609 436.843 263.775 417.351 255.103 402.437C246.43 387.522 246.43 377.776 248.646 369.654C252.8 354.421 293.523 341.853 352.509 331.999C377.63 327.803 393.776 331.006 405.978 336.349C428.581 346.245 437.915 366.768 443.728 380.609C446.486 387.176 446.882 393.563 446.01 398.973C444.345 409.294 437.083 416.035 427.296 421.392C410.278 430.706 384.379 429.487 358.054 427.715C328.654 425.736 294.946 407.229 260.553 382.689C243.894 370.803 232.362 355.492 220.656 333.57C208.95 311.648 198.318 282.41 189.297 253.615C171.801 197.769 165.885 165.511 165.885 164.571C165.885 153.107 169.429 201.998 180.114 241.237C203.85 328.397 224.898 345.289 230.751 356.955C232.102 359.649 233.865 362.311 234.335 365.01C234.805 367.708 233.919 370.366 232.134 372.178C230.348 373.99 227.69 374.876 224.992 373.118C222.294 371.359 219.636 366.929 217.38 342.054C215.125 317.179 213.353 271.992 213.326 238.083C213.299 204.173 215.071 182.909 219.971 158.664C230.357 107.274 243.719 77.7963 244.202 79.528C249.15 97.2586 209.916 130.339 179.967 167.457C163.563 187.788 152.487 192.306 147.131 194.548C144.604 195.605 141.775 194.131 139.519 192.346C130.122 179.848 122.041 162.853 120.255 151.684C119.356 146.717 118.47 143.173 117.557 136.836" stroke="#081C3F" stroke-width="8.3902" stroke-linecap="round"/>
</svg>
